# xmcd
#
# Track frame offsets:
#	150
#	11546
#	19763
#	31834
#	42416
#	53650
#	65778
#	77692
#	89457
#	97738
#	111806
#	123166
#	136639
#	147341
#	155248
#	163532
#	173923
#	181495
#	192424
#	205324
#
# Disc length: 2869 seconds
#
# Revision: 2
# Processed by: cddbd v1.5.2PL0 Copyright (c) Steve Scherf et al.
# Submitted via: EasyCDDAExtractor 12.0.1.1
#
DISCID=0b0b3314
DTITLE=Various Artist - The Ultimate Ballroom Album 7 CD1
DYEAR=2004
DGENRE=Dance
TTITLE0=Bobby Darin - SF 29 - Beautiful Things
TTITLE1=Ella Fitzgerald - SF 29 - All Of You
TTITLE2=Dean Martin - SF 29 - Baby It's Cold Outside
TTITLE3=Julie London - SF 29 - Daddy
TTITLE4=Andy Wiliams - SF 29 - Something Stupid
TTITLE5=Shirley Bassey - SF 29 - How About You
TTITLE6=Vic Damone - SF 29 - Me And My Shadow
TTITLE7=Dinah Shore - SF 29 - If I Were A Bell
TTITLE8=Bobby Darin - SF 29 - Look At Me
TTITLE9=Ella Fitzgerald - SF 29 - Night And Day
TTITLE10=Sammy Davis Jr - QS 50 - Get Happy
TTITLE11=Ella Fitzgerald - QS 50 - From This Moment On
TTITLE12=Ted Heath Orch - QS 50 - This Can't Be Love
TTITLE13=Natalie Cole - QS 50 - Thou Swell
TTITLE14=Bobby Darin and Johnny Mercer - QS 50 - I Ain't Gonna Give None Of My J
TTITLE14=elly Roll
TTITLE15=Ted Heath Orch - QS 50 - At The Jazz Band Ball
TTITLE16=Judy Garland - QS 50 - Puttin' On The Ritz
TTITLE17=Bobby Darin - QS 50 - It's Today
TTITLE18=Count Basie Orch - QS 50 - Tickle Toe
TTITLE19=Ted Heath Orch - QS 50 - Piccadilly
EXTD=YEAR: 2004
EXTT0=
EXTT1=
EXTT2=
EXTT3=
EXTT4=
EXTT5=
EXTT6=
EXTT7=
EXTT8=
EXTT9=
EXTT10=
EXTT11=
EXTT12=
EXTT13=
EXTT14=
EXTT15=
EXTT16=
EXTT17=
EXTT18=
EXTT19=
PLAYORDER=
